<?xml version="1.0" standalone="no"?>
<!DOCTYPE svg PUBLIC "-//W3C//DTD SVG 20010904//EN"
 "http://www.w3.org/TR/2001/REC-SVG-20010904/DTD/svg10.dtd">
<svg version="1.0" xmlns="http://www.w3.org/2000/svg"
 width="800.000000pt" height="800.000000pt" viewBox="0 0 800.000000 800.000000"
 preserveAspectRatio="xMidYMid meet">
<metadata>
Created by potrace 1.11, written by Peter Selinger 2001-2013
</metadata>
<g transform="translate(0.000000,800.000000) scale(0.100000,-0.100000)"
fill="#000000" stroke="none">
<path d="M0 4000 l0 -4000 4000 0 4000 0 0 4000 0 4000 -4000 0 -4000 0 0
-4000z m4066 2839 c502 -49 907 -194 1310 -469 48 -33 91 -57 95 -54 14 8 10
26 -8 41 -32 25 -195 134 -224 149 -16 8 -29 19 -29 24 0 18 161 170 180 170
34 0 50 -12 50 -36 0 -13 21 -73 46 -132 26 -59 55 -129 65 -157 l19 -50 -37
-35 c-21 -20 -91 -82 -156 -140 -95 -83 -122 -102 -135 -94 -9 6 -17 15 -18
20 -2 5 44 49 102 99 99 85 122 115 89 115 -15 0 -158 -120 -278 -231 -48 -45
-57 -77 -17 -64 12 4 19 -1 24 -17 3 -13 1 -24 -4 -26 -6 -2 -10 -8 -10 -14 0
-6 6 -5 16 2 13 11 18 10 36 -7 l20 -21 -43 -55 c-24 -31 -46 -56 -49 -56 -3
0 -16 9 -29 20 l-24 20 23 24 c13 14 20 25 16 25 -4 0 -16 -10 -26 -22 l-18
-23 -29 26 c-31 28 -40 34 -162 115 -433 288 -1010 371 -1539 223 -222 -62
-501 -207 -632 -328 -25 -22 -49 -41 -54 -41 -14 0 -162 -148 -231 -230 -169
-203 -302 -455 -369 -701 -8 -30 -18 -65 -22 -78 -5 -16 -4 -22 4 -18 5 4 27
50 48 103 43 107 53 110 29 9 -8 -36 -15 -76 -14 -88 0 -21 1 -21 9 -2 9 20
51 132 64 169 13 37 18 7 8 -46 -6 -29 -13 -73 -16 -98 -5 -42 -5 -43 8 -20 7
14 24 55 36 93 13 37 24 66 25 65 2 -2 -3 -41 -11 -88 -7 -47 -14 -89 -13 -95
0 -25 19 28 44 120 48 178 100 306 177 434 21 34 38 65 38 68 0 6 109 151 145
193 425 487 1085 688 1710 520 114 -31 179 -56 161 -63 -17 -7 -14 -41 7 -82
9 -18 12 -15 26 27 l16 46 95 -46 c75 -37 90 -48 70 -50 -14 -2 -39 -17 -56
-34 -31 -29 -33 -30 -65 -15 -102 47 -139 61 -223 87 -177 54 -252 64 -481 64
-226 0 -314 -12 -485 -68 -397 -130 -741 -429 -910 -791 -76 -164 -102 -243
-136 -414 -24 -123 -26 -149 -21 -310 4 -139 10 -200 30 -291 26 -114 65 -237
94 -293 8 -16 10 -27 5 -23 -5 3 -15 -14 -21 -39 -17 -68 -17 -68 34 -62 32 5
45 3 45 -6 0 -6 22 -46 50 -87 47 -71 59 -100 43 -100 -5 0 -17 -14 -28 -30
-25 -38 -36 -38 -66 3 -85 113 -200 351 -243 500 -11 37 -21 55 -28 51 -7 -5
-9 0 -5 15 3 14 0 24 -9 28 -23 9 -26 -1 -13 -51 6 -26 10 -49 7 -51 -2 -3
-18 -8 -36 -11 l-31 -6 -12 61 c-12 64 -23 81 -42 62 -7 -7 -6 -31 5 -83 17
-80 10 -138 -11 -85 -6 16 -16 60 -22 98 -11 64 -29 95 -29 48 0 -27 29 -158
40 -184 5 -11 17 -51 26 -90 19 -80 57 -174 91 -225 13 -19 23 -39 23 -45 0
-24 74 -151 133 -227 29 -39 28 -58 -7 -87 -12 -10 -26 6 -89 101 -41 62 -100
165 -130 228 -67 138 -141 353 -131 382 4 13 2 18 -4 14 -9 -5 -32 93 -32 137
0 18 -38 33 -51 20 -5 -5 1 -56 15 -123 59 -276 173 -534 331 -750 l46 -61
-33 -42 c-18 -23 -37 -45 -42 -49 -6 -4 -7 -10 -3 -14 4 -4 15 3 25 15 9 13
27 36 40 52 l24 29 37 -48 c47 -59 209 -218 276 -270 164 -129 392 -256 575
-320 620 -217 1323 -115 1840 267 124 92 266 224 354 331 134 161 275 405 341
590 34 96 81 271 90 334 l7 49 22 -49 22 -49 -18 -65 c-56 -194 -85 -274 -148
-403 -56 -116 -108 -209 -156 -283 -19 -28 -34 -56 -34 -63 0 -7 19 -11 49
-11 28 0 53 -4 56 -10 20 -33 -275 -352 -448 -483 -20 -15 -37 -33 -37 -38 0
-17 92 -98 105 -93 8 3 15 -8 19 -28 5 -25 27 -50 93 -108 154 -134 208 -184
211 -198 2 -8 -3 -28 -11 -46 -8 -17 -20 -42 -25 -56 -6 -14 -30 -69 -53 -123
-23 -53 -39 -100 -35 -104 4 -4 20 1 37 11 48 29 45 11 -5 -23 -50 -34 -58
-36 -85 -19 -16 10 -17 14 -6 22 17 13 66 141 58 150 -4 3 -19 -9 -35 -26
l-28 -33 6 30 7 30 -28 -25 c-28 -25 -28 -25 -22 -3 5 24 -7 31 -19 12 -4 -8
-9 -7 -15 2 -6 11 -12 11 -33 -1 -14 -7 -26 -18 -26 -24 0 -6 25 -30 56 -54
62 -48 67 -70 6 -28 -21 14 -45 26 -53 26 -7 1 -31 16 -51 33 l-37 33 37 19
c41 22 214 134 251 164 25 19 24 60 -1 44 -7 -4 -69 -46 -138 -91 -133 -88
-395 -223 -520 -267 -166 -58 -251 -82 -445 -124 -219 -47 -580 -59 -810 -27
-217 30 -477 95 -590 147 -57 26 -28 23 52 -5 331 -115 904 -159 1253 -96 287
51 554 134 789 246 115 54 281 158 281 174 0 12 -47 -6 -66 -25 -9 -8 -21 -15
-27 -15 -6 0 7 18 28 40 43 44 38 51 -14 19 -45 -27 -49 -19 -11 25 33 37 23
50 -16 21 -31 -24 -51 -18 -24 7 29 27 10 37 -25 14 -32 -21 -32 -6 0 24 37
34 31 45 -11 21 -43 -26 -52 -23 -23 8 24 26 17 41 -11 23 -33 -21 -45 -13
-20 13 20 21 21 25 6 25 -9 0 -26 -5 -37 -10 -23 -13 -26 2 -4 20 24 20 17 30
-17 23 -26 -5 -30 -4 -25 10 8 21 -3 21 -48 3 -36 -15 -45 -10 -22 13 6 7 -21
-3 -60 -23 -282 -140 -503 -206 -802 -237 -130 -13 -487 -7 -591 11 -236 40
-494 128 -682 231 -39 22 -73 39 -76 39 -3 0 5 -11 18 -25 27 -29 25 -30 -23
-10 -52 22 -64 19 -37 -10 27 -29 21 -31 -20 -10 -37 19 -39 7 -5 -25 32 -30
32 -47 0 -26 -13 9 -32 16 -42 16 -13 0 -11 -6 12 -30 33 -35 24 -39 -24 -9
-42 26 -50 18 -17 -17 33 -36 27 -40 -18 -13 -43 25 -57 20 -27 -12 31 -34 25
-41 -14 -18 -42 25 -45 16 -8 -23 29 -30 22 -36 -17 -13 -39 23 -46 17 -17
-13 39 -40 33 -46 -14 -17 -55 35 -72 27 -31 -15 36 -36 36 -51 0 -26 -12 9
-29 16 -38 16 -33 -1 164 -142 295 -212 112 -60 66 -44 -63 22 -138 70 -145
74 -281 167 -79 54 -109 69 -118 61 -19 -16 -7 -27 125 -115 65 -42 119 -78
121 -80 3 -2 -1 -9 -7 -15 -9 -9 -17 -7 -32 7 -16 15 -23 16 -29 7 -4 -7 -15
-10 -25 -6 -16 6 -17 3 -11 -17 l7 -24 -24 23 c-30 27 -38 28 -31 2 7 -28 -11
-25 -27 5 -7 14 -17 25 -22 25 -11 0 -11 4 17 -80 30 -87 29 -80 8 -80 -13 0
-30 29 -62 108 -24 59 -56 136 -72 172 l-29 65 38 35 c21 19 72 64 113 100 40
35 94 84 118 107 24 24 48 43 53 43 5 0 12 8 15 18 4 9 32 40 62 68 l56 52
-30 23 c-75 59 -171 146 -251 227 -99 100 -227 260 -218 273 3 5 30 9 60 9 30
0 54 4 54 8 0 4 -14 30 -32 58 -37 57 -42 64 -97 164 -133 237 -231 523 -231
671 l0 69 176 0 176 0 -6 38 c-18 120 -27 258 -21 335 l7 87 -151 0 c-132 0
-151 2 -151 16 0 9 9 18 20 21 11 3 20 8 20 12 0 35 36 206 59 281 46 149 67
204 134 333 71 137 69 134 120 207 67 98 72 105 80 108 12 6 34 54 41 90 6 36
52 82 172 175 36 28 64 57 64 67 0 11 7 17 18 16 40 -3 11 36 -97 130 -62 54
-130 113 -150 131 -37 33 -75 44 -69 20 3 -12 104 -107 202 -189 l30 -25 -31
-5 c-28 -4 -42 5 -116 71 -46 42 -114 103 -151 136 l-68 60 32 75 c52 123 72
172 93 233 14 42 25 57 38 57 25 0 24 -14 -6 -90 -34 -86 -32 -104 6 -60 24
28 29 31 24 13 -6 -23 8 -32 20 -13 10 16 25 12 25 -6 0 -14 3 -14 16 -3 13
10 17 10 23 0 7 -10 12 -10 29 0 18 11 24 11 34 0 11 -11 10 -14 -1 -19 -8 -2
-68 -41 -133 -84 -85 -57 -118 -85 -115 -96 2 -10 8 -16 15 -15 6 2 64 38 129
82 124 83 350 207 360 198 3 -4 -19 -18 -48 -32 -78 -38 -154 -87 -232 -151
-72 -58 -84 -82 -23 -44 43 26 46 17 9 -22 -33 -35 -24 -47 15 -19 42 29 58
26 33 -6 -27 -33 -21 -39 18 -18 35 18 41 7 11 -20 -33 -30 -23 -38 17 -14 36
22 38 15 5 -24 -23 -26 -8 -30 29 -8 48 30 57 26 24 -9 -33 -35 -18 -39 31 -9
40 24 45 13 9 -21 -34 -32 -31 -44 6 -25 41 21 45 15 14 -20 -31 -33 -26 -44
11 -21 32 22 44 13 19 -14 -22 -24 -6 -26 36 -4 36 18 52 11 23 -11 -38 -29 1
-14 130 49 308 151 598 217 951 217 281 0 503 -33 730 -111 161 -55 207 -74
292 -120 56 -30 78 -38 84 -29 6 10 13 10 34 1 37 -17 58 -15 51 4 -5 13 -1
15 17 10 35 -8 40 4 15 32 -20 21 -20 24 -5 19 11 -4 31 -10 45 -13 l27 -7
-24 27 -25 26 33 -11 c41 -15 46 -8 20 24 -22 29 -15 35 15 12 37 -28 52 -17
21 15 -31 32 -24 40 13 14 32 -22 40 -9 14 19 -32 34 -27 39 13 15 46 -27 56
-16 20 22 -36 38 -29 45 19 19 51 -27 55 -19 10 20 -46 41 -38 51 13 17 58
-40 63 -30 9 19 -88 78 -382 214 -626 288 -188 57 -219 65 -360 92 -248 49
-644 45 -955 -9 -138 -24 -345 -75 -408 -100 -18 -8 -43 -17 -57 -20 -52 -14
9 15 107 50 189 68 402 113 688 147 69 9 289 6 391 -4z m-1246 -219 c-19 -11
-39 -19 -45 -19 -5 0 6 8 25 19 19 11 40 19 45 19 6 0 -6 -8 -25 -19z m2960
-276 c0 -7 -39 15 -103 58 -71 48 -63 23 10 -37 28 -22 58 -51 68 -64 20 -27
19 -26 -65 28 -31 20 -64 41 -75 47 -14 8 -85 149 -85 171 0 2 56 -42 125 -97
69 -56 125 -104 125 -106z m-3591 145 c-11 -29 -25 -61 -31 -73 -12 -23 -58
-65 -72 -66 -5 0 -17 -6 -25 -13 -9 -8 -34 -24 -56 -36 -34 -19 -30 -13 34 48
41 39 72 73 70 76 -3 2 -25 -9 -49 -26 -25 -16 -58 -37 -75 -45 l-30 -16 25
24 c14 12 41 35 60 51 19 15 62 50 95 77 33 27 63 49 67 50 4 0 -1 -23 -13
-51z m-63 -155 c-3 -9 -6 -17 -6 -19 0 -6 -88 -65 -97 -65 -10 0 89 99 101
100 4 0 5 -7 2 -16z m3554 -39 c24 -25 41 -45 36 -45 -17 0 -96 62 -96 75 0
24 13 17 60 -30z m-3535 -23 c0 -12 -63 -62 -78 -62 -5 0 6 18 24 39 33 38 54
47 54 23z m3530 -60 c-4 -5 -67 37 -77 52 -4 6 -4 14 -1 19 3 5 23 -8 44 -29
21 -21 37 -40 34 -42z m-3493 23 c1 -6 -20 -25 -45 -43 -26 -19 -47 -31 -47
-28 0 3 16 24 36 46 35 38 54 47 56 25z m3427 -20 c18 -20 31 -38 29 -40 -8
-8 -88 56 -82 66 9 15 18 11 53 -26z m-3389 -17 c0 -13 -59 -58 -75 -58 -5 0
6 16 25 35 36 37 50 43 50 23z m3355 -23 c42 -41 44 -51 8 -30 -41 22 -63 41
-63 54 0 20 20 12 55 -24z m-3315 -14 c0 -12 -70 -64 -77 -57 -9 8 47 66 64
66 7 0 13 -4 13 -9z m3275 -21 c16 -16 26 -32 23 -35 -6 -6 -77 47 -78 58 0
17 28 5 55 -23z m-3235 -19 c0 -10 -79 -66 -85 -60 -8 8 65 80 75 74 6 -3 10
-10 10 -14z m3219 -41 c28 -37 17 -33 -42 13 -20 16 -34 33 -31 38 8 14 42
-10 73 -51z m-3179 10 c0 -5 -20 -23 -45 -40 -53 -36 -58 -29 -13 17 31 32 58
43 58 23z m3125 -30 c21 -22 36 -40 31 -40 -16 0 -96 62 -91 71 10 15 19 11
60 -31z m-978 -7 c-16 -16 -17 -16 -17 0 0 10 5 15 10 12 6 -3 10 -1 10 6 0 7
3 9 7 5 4 -3 -1 -14 -10 -23z m-2117 -1 c0 -11 -24 -31 -65 -57 -30 -18 -30
-18 -16 1 18 24 64 64 74 64 4 0 7 -4 7 -8z m3054 -22 c16 -17 26 -34 23 -37
-8 -7 -77 45 -77 58 0 18 26 8 54 -21z m-530 -179 c32 -25 68 -54 80 -63 l21
-17 -26 -28 c-44 -49 -53 -70 -11 -25 41 43 41 44 65 25 l24 -18 -39 -46 -39
-47 -47 47 c-52 52 -155 133 -217 170 -22 14 -42 26 -44 28 -3 2 5 17 18 33
17 24 19 30 6 30 -8 0 -15 5 -15 11 0 7 10 9 24 5 14 -3 27 -2 31 4 6 10 65
-28 169 -109z m-242 92 c-6 -2 -9 -10 -6 -15 4 -7 2 -8 -5 -4 -13 9 -5 26 12
25 9 0 8 -2 -1 -6z m620 -109 c29 -36 67 -81 84 -101 24 -28 29 -41 22 -53 -8
-12 3 -35 49 -100 78 -113 111 -168 163 -275 79 -163 148 -377 165 -515 4 -30
14 -67 21 -82 8 -15 14 -29 14 -32 0 -3 -57 -7 -126 -8 l-126 -3 1 -115 c1
-63 -5 -162 -13 -220 -8 -58 -12 -108 -9 -112 2 -5 67 -8 144 -8 112 0 139 -3
139 -14 0 -7 -9 -16 -19 -19 -14 -3 -21 -17 -26 -43 -20 -137 -96 -376 -159
-504 -36 -72 -60 -114 -141 -249 -58 -96 -221 -276 -352 -390 -277 -240 -653
-406 -1018 -446 -523 -59 -994 68 -1410 379 -100 75 -345 318 -345 342 0 3 11
19 25 35 l24 30 20 -38 c21 -41 160 -193 177 -193 5 0 35 -27 67 -59 89 -93
361 -263 494 -309 32 -11 94 -34 138 -50 44 -16 114 -35 155 -42 41 -7 104
-19 140 -28 101 -24 455 -21 575 6 50 11 112 23 139 27 27 4 86 20 130 37 45
16 110 40 146 53 73 25 170 75 215 109 17 13 53 35 80 49 109 55 349 273 428
387 17 25 48 65 70 90 21 25 48 61 58 80 11 19 29 51 41 70 11 19 27 53 35 75
7 21 20 46 28 55 22 24 83 181 91 232 4 24 15 59 24 78 17 34 40 143 40 188 0
42 -17 22 -23 -27 -15 -124 -65 -221 -115 -221 -16 0 -13 6 18 38 31 31 40 50
55 114 19 85 17 123 -5 123 -10 0 -19 -20 -28 -62 -9 -39 -19 -63 -27 -63 -31
0 -45 13 -46 44 -1 26 -4 21 -19 -28 -13 -41 -16 -64 -9 -72 7 -9 6 -15 -5
-21 -23 -13 -106 -221 -106 -265 0 -39 -8 -46 -26 -28 -14 14 -36 -12 -40 -46
-4 -36 -65 -134 -84 -134 -9 0 -26 -10 -37 -22 -34 -38 -34 -45 -2 -40 32 5
40 -13 9 -23 -26 -8 -172 -168 -189 -208 -13 -32 -14 -32 -24 -9 -8 18 -6 28
11 52 12 16 22 32 22 35 0 4 -37 -22 -82 -57 -130 -99 -166 -123 -293 -186
-152 -76 -231 -105 -367 -137 -37 -8 -80 -20 -95 -26 -16 -6 -86 -13 -158 -16
-71 -3 -131 -9 -133 -14 -2 -5 -15 -9 -28 -9 -14 0 -22 4 -19 10 4 6 -19 10
-62 11 -37 0 -90 4 -118 9 -29 4 -51 4 -53 -1 -6 -14 -42 -10 -42 4 0 8 -23
18 -57 25 -166 34 -393 130 -546 229 -103 67 -173 126 -280 235 -53 54 -102
96 -107 93 -6 -3 -10 3 -10 14 0 10 -2 26 -5 34 -4 8 9 32 28 54 31 38 34 39
53 24 10 -9 25 -27 32 -41 12 -24 141 -155 208 -211 17 -14 64 -49 104 -78
l74 -52 23 28 c18 23 22 24 23 10 0 -10 -7 -20 -15 -23 -8 -4 -15 -13 -15 -21
0 -8 4 -12 9 -9 4 3 16 -3 26 -14 16 -18 16 -20 -5 -42 -12 -13 -26 -32 -32
-43 -5 -11 9 2 33 28 23 26 45 44 48 40 13 -19 170 -84 285 -119 357 -108 778
-72 1121 95 311 152 587 430 726 731 50 107 58 128 89 231 92 308 79 693 -35
992 -64 167 -209 417 -242 417 -5 0 -19 18 -32 40 -12 21 -33 48 -47 59 l-26
20 38 47 38 46 36 -40 c55 -59 126 -149 175 -221 l29 -43 -23 -19 c-12 -10
-20 -23 -17 -28 3 -5 -3 -7 -14 -4 -11 3 -20 1 -20 -5 0 -5 28 -15 61 -21 34
-6 63 -12 63 -13 4 -5 69 -153 81 -183 7 -16 20 -52 30 -80 10 -27 21 -54 25
-60 4 -5 17 -39 29 -75 28 -86 41 -105 41 -63 0 18 -5 55 -11 82 -17 81 -5 92
20 17 53 -156 74 -179 46 -49 -9 43 -19 87 -22 98 -13 48 16 -7 52 -100 43
-112 56 -114 26 -4 -51 194 -173 451 -290 609 -37 51 -148 177 -204 233 l-48
49 43 53 c24 30 46 54 50 55 4 0 31 -29 60 -66z m-1212 -28 c25 -4 76 -8 115
-10 57 -3 72 -8 83 -25 8 -12 24 -21 36 -21 32 0 126 -49 126 -66 0 -8 5 -14
11 -14 5 0 7 6 3 13 -5 8 -2 7 10 -2 31 -25 -24 -36 -59 -11 -5 4 -34 15 -63
26 -46 16 -54 16 -62 4 -13 -20 -12 -96 1 -144 13 -47 87 -132 103 -116 18 18
27 11 14 -10 -11 -18 -8 -29 19 -83 43 -85 53 -121 51 -186 l-1 -56 -7 45 -7
45 -1 -52 c-1 -29 -6 -53 -10 -53 -5 0 -14 -10 -21 -22 -9 -20 -11 -14 -8 34
2 31 0 55 -5 52 -4 -3 -8 -20 -8 -37 0 -34 -21 -101 -34 -114 -5 -5 -6 14 -3
42 5 46 4 48 -9 25 -7 -14 -13 -39 -14 -56 0 -19 -10 -42 -26 -59 l-27 -29 7
-145 c8 -163 11 -181 32 -181 8 0 14 -4 14 -10 0 -9 12 -15 113 -60 26 -11 45
-24 43 -29 -3 -4 5 -6 17 -4 13 3 36 -6 56 -21 19 -14 40 -26 47 -26 6 0 18
-15 26 -32 8 -18 13 -27 11 -20 -4 18 14 15 26 -5 6 -10 11 -14 11 -10 0 5 7
2 15 -7 8 -8 12 -21 9 -30 -4 -11 0 -14 15 -11 12 2 20 -1 18 -8 -1 -7 4 -11
12 -9 9 2 12 -4 8 -18 -4 -16 -2 -20 9 -16 8 3 14 -1 14 -8 0 -8 6 -16 14 -19
32 -12 43 -160 14 -178 -5 -3 -11 -24 -11 -47 -1 -22 -5 -38 -8 -36 -4 2 -12
-16 -19 -41 -7 -25 -19 -50 -26 -56 -8 -6 -14 -17 -14 -24 0 -8 -18 -33 -40
-56 -22 -24 -40 -40 -40 -37 0 4 -13 -5 -28 -20 -15 -15 -26 -33 -24 -39 5
-17 -15 -17 -21 0 -3 6 -6 2 -6 -10 -1 -26 -21 -42 -21 -16 0 10 7 32 15 48
l15 30 -20 -24 c-11 -13 -20 -34 -20 -47 0 -12 -11 -36 -25 -51 -20 -23 -26
-25 -34 -14 -7 11 -10 9 -13 -8 -2 -16 -20 -32 -57 -52 -30 -15 -64 -37 -74
-48 -27 -27 -34 -106 -13 -156 13 -31 14 -40 4 -47 -20 -12 -80 -28 -109 -28
-14 0 -29 -3 -32 -7 -4 -3 -17 -7 -30 -9 -12 -1 -51 -7 -87 -14 -101 -20 -368
-13 -412 11 -10 5 -23 7 -28 4 -9 -5 -40 3 -165 41 -27 9 -89 34 -137 57 -80
36 -103 57 -80 71 15 9 97 -15 135 -40 35 -23 39 -23 61 -9 20 14 23 22 20 58
-7 66 -27 161 -36 172 -23 28 -59 82 -64 98 -4 9 -11 17 -16 17 -5 0 -6 10 -3
23 6 18 5 20 -6 10 -31 -31 -64 176 -38 244 10 28 57 83 70 83 4 0 10 -8 12
-17 4 -14 5 -14 6 3 0 12 12 29 26 38 25 16 25 17 25 181 0 92 -4 165 -9 165
-5 0 -7 8 -5 18 5 20 -27 36 -153 78 -45 14 -81 31 -80 37 1 5 -4 12 -12 15
-8 3 -11 0 -7 -7 9 -15 -7 -14 -22 1 -6 6 -20 13 -29 14 -28 4 -64 27 -54 34
6 3 1 11 -10 19 -15 9 -19 9 -14 0 5 -7 3 -10 -6 -7 -8 3 -14 15 -13 26 0 17
-2 19 -13 11 -10 -9 -13 -8 -13 5 0 9 -6 16 -14 16 -15 0 -33 68 -35 132 -2
39 17 94 40 119 8 8 34 37 59 65 147 164 194 213 201 208 4 -2 10 4 13 14 3
10 33 44 66 75 33 32 60 62 60 67 0 5 7 6 17 3 11 -4 14 -3 9 5 -4 7 -2 12 3
12 6 0 11 10 10 23 0 21 -1 21 -9 2 -9 -21 -10 -12 -13 132 l-2 61 -33 -4
c-18 -2 -44 -11 -57 -20 -13 -9 -33 -13 -44 -9 -10 3 -22 1 -26 -4 -3 -7 0 -8
9 -5 27 10 18 -3 -16 -24 -22 -14 -37 -18 -49 -12 -9 5 -20 6 -24 2 -5 -4 -5
-2 -1 5 4 7 14 9 23 6 11 -4 14 -3 9 5 -4 7 -2 12 4 12 7 0 9 -7 6 -16 -3 -8
-2 -12 4 -9 6 3 10 12 10 20 0 7 13 23 28 34 23 16 32 17 41 8 10 -9 11 -8 5
6 -5 13 -2 16 12 10 12 -4 15 -3 10 6 -6 8 -1 10 17 6 22 -6 26 -3 32 25 4 20
15 34 26 37 18 5 18 6 3 18 -14 10 -6 12 42 12 82 0 201 10 215 19 49 30 264
40 419 20z m416 -83 c-2 -10 -11 -19 -22 -21 -16 -3 -17 -1 -4 7 8 6 11 11 7
11 -11 0 2 20 13 20 4 0 7 -8 6 -17z m130 -131 c46 -30 114 -88 114 -97 0 -4
-5 -3 -12 1 -8 5 -9 2 -5 -11 7 -17 6 -17 -19 0 -15 10 -46 32 -68 49 -23 17
-52 38 -65 46 -18 12 -22 21 -17 38 5 15 11 19 19 12 7 -6 31 -23 53 -38z
m-138 -51 c-18 -22 -35 -38 -37 -36 -5 6 52 73 62 74 5 1 -7 -17 -25 -38z
m-1350 9 c-12 -19 -28 -27 -28 -14 0 6 30 33 38 34 1 0 -3 -9 -10 -20z m1932
-40 c0 -5 -4 -10 -10 -10 -5 0 -10 5 -10 10 0 6 5 10 10 10 6 0 10 -4 10 -10z
m-2029 -43 c-10 -9 -11 -8 -5 6 3 10 9 15 12 12 3 -3 0 -11 -7 -18z m1392 8
c-3 -9 -8 -14 -10 -11 -3 3 -2 9 2 15 9 16 15 13 8 -4z m-1431 -37 c-11 -11
-25 -17 -31 -13 -18 10 6 35 26 28 12 -5 14 -3 8 7 -6 9 -4 11 4 5 10 -6 8
-12 -7 -27z m2388 -37 c0 -25 -3 -28 -22 -23 -21 5 -22 4 -9 -12 8 -9 11 -19
8 -22 -10 -10 -39 5 -32 16 3 5 1 10 -4 10 -20 0 -11 15 22 38 17 12 33 22 34
22 2 0 3 -13 3 -29z m-502 -70 c-2 -9 3 -15 12 -14 22 3 74 -82 62 -103 -8
-14 -15 -7 -45 37 -20 30 -54 72 -76 93 -34 34 -39 42 -29 60 11 19 12 19 45
-19 18 -21 32 -46 31 -54z m106 -126 c3 -8 2 -22 -1 -32 -4 -9 -2 -14 4 -10
13 8 43 -28 43 -53 0 -11 4 -20 9 -20 5 0 12 -12 15 -26 4 -14 15 -45 25 -68
22 -49 25 -87 7 -80 -12 5 -46 94 -48 124 0 8 -13 31 -28 50 -39 51 -61 96
-54 114 8 20 20 20 28 1z m-2188 -46 c-8 -19 -15 -27 -16 -19 -1 8 -8 -10 -16
-40 -8 -30 -19 -56 -24 -58 -6 -2 -10 -10 -10 -18 0 -8 -5 -14 -11 -14 -6 0
-8 -9 -4 -21 4 -12 3 -19 -2 -16 -5 3 -18 -17 -28 -46 -10 -29 -22 -57 -27
-64 -5 -7 -7 -21 -3 -33 4 -12 1 -27 -5 -35 -7 -8 -10 -29 -8 -47 3 -20 0 -38
-8 -46 -12 -11 -14 -8 -14 22 0 19 7 61 16 93 9 32 20 76 25 98 14 59 37 114
70 168 16 26 29 53 29 59 0 12 42 58 48 53 2 -2 -4 -18 -12 -36z m-96 -269 c0
-5 -5 -10 -11 -10 -5 0 -7 5 -4 10 3 6 8 10 11 10 2 0 4 -4 4 -10z m2421 -73
c-8 -8 -11 -3 -11 19 1 25 2 27 11 11 8 -14 8 -22 0 -30z m24 -76 c-10 -26
-27 4 -19 34 l7 29 9 -24 c5 -13 6 -30 3 -39z m12 -58 c-3 -3 -11 -2 -17 2 -9
6 -9 10 1 16 14 8 27 -7 16 -18z m-3380 -77 c-31 -14 -26 -26 12 -26 l26 -1
-25 -14 -25 -14 27 -1 c15 0 30 -4 33 -10 3 -5 -3 -10 -14 -10 -12 0 -21 -4
-21 -10 0 -5 11 -10 24 -10 14 0 28 -4 31 -10 3 -5 -3 -10 -14 -10 -12 0 -21
-4 -21 -10 0 -5 9 -10 19 -10 26 0 36 -17 14 -23 -14 -3 -11 -7 12 -17 26 -11
27 -14 10 -17 -46 -9 -51 -15 -25 -26 l25 -11 -30 -4 c-37 -4 -58 -22 -27 -22
12 0 22 -4 22 -10 0 -5 -13 -10 -29 -10 -34 0 -50 -16 -24 -23 15 -3 14 -6 -7
-14 l-25 -11 25 -10 c21 -9 13 -11 -44 -11 -79 -1 -79 -4 -12 93 25 35 46 72
46 81 0 9 -22 49 -50 90 -27 41 -50 79 -50 85 0 6 28 10 73 9 66 -1 70 -2 44
-13z m4273 4 c0 -5 -22 -44 -50 -86 -27 -42 -50 -83 -50 -91 0 -8 23 -47 50
-87 28 -40 50 -75 50 -79 0 -4 -30 -7 -67 -6 -59 0 -65 2 -43 11 25 11 25 11
3 15 -22 4 -33 23 -13 23 6 0 10 5 10 10 0 6 -16 10 -36 10 -21 0 -33 4 -29
10 3 6 15 10 26 10 11 0 17 5 14 10 -3 6 -17 10 -31 10 -13 0 -24 5 -24 10 0
6 8 10 17 10 24 0 3 17 -27 22 l-25 4 30 13 c28 12 28 14 10 22 -19 8 -19 8 3
15 25 7 30 24 7 24 -29 0 -15 19 18 23 29 4 30 5 10 12 -27 9 -21 25 10 25 22
1 22 1 3 15 -19 14 -19 15 6 15 15 0 30 5 33 10 3 6 -3 10 -14 10 -11 0 -23 5
-26 10 -4 6 20 10 64 10 39 0 71 -4 71 -10z m-3403 -76 c3 -8 1 -27 -6 -40 -7
-15 -7 -23 -1 -19 11 7 12 0 4 -32 -4 -13 -10 -20 -15 -17 -5 3 -6 -10 -4 -28
4 -26 3 -29 -4 -13 -11 23 -14 109 -5 143 7 26 22 29 31 6z m2521 -20 c1 -19
-5 -45 -13 -57 -8 -12 -15 -19 -16 -17 -6 53 -4 84 8 96 19 18 18 19 21 -22z
m-51 -26 c-3 -7 -5 -2 -5 12 0 14 2 19 5 13 2 -7 2 -19 0 -25z m33 -79 c0 -6
-4 -7 -10 -4 -5 3 -10 11 -10 16 0 6 5 7 10 4 6 -3 10 -11 10 -16z m-2514 -75
c-4 -15 -3 -23 2 -20 6 3 15 -7 21 -22 15 -36 18 -91 6 -89 -5 1 -10 12 -10
25 1 12 -3 22 -8 22 -5 0 -6 12 -3 26 4 15 3 23 -3 20 -5 -3 -11 0 -14 8 -6
15 2 56 10 56 3 0 2 -12 -1 -26z m2518 18 c2 -4 1 -14 -5 -22 -7 -13 -9 -13
-10 0 0 10 -3 8 -9 -5 -8 -20 -9 -20 -9 1 -1 29 20 46 33 26z m-59 -175 c-18
-74 -53 -162 -62 -153 -3 3 -2 13 2 23 13 30 17 47 19 75 0 14 4 24 8 22 7 -4
22 38 34 96 4 19 9 29 11 22 3 -7 -3 -45 -12 -85z m-2395 -9 c0 -6 -3 -8 -7
-5 -3 4 -12 2 -20 -4 -16 -14 -18 2 -1 19 12 12 28 7 28 -10z m19 -56 c6 -15
13 -39 17 -55 3 -15 10 -30 15 -33 14 -8 11 -21 -5 -21 -8 0 -12 6 -8 15 4 12
1 14 -13 8 -11 -4 -16 -4 -13 0 4 3 1 19 -7 34 -8 15 -11 30 -8 34 4 3 1 6 -6
6 -8 0 -11 6 -7 16 3 8 2 12 -4 9 -11 -7 -14 8 -4 18 11 11 32 -4 43 -31z
m-469 -55 c14 -59 11 -88 -8 -95 -9 -3 -11 6 -6 35 3 22 1 56 -4 76 -6 20 -7
37 -3 37 4 0 14 -24 21 -53z m-95 -57 c-27 -53 -20 -104 37 -250 30 -78 55
-109 102 -130 l41 -19 -36 0 c-27 -1 -42 6 -65 32 -39 42 -58 73 -74 122 -7
22 -16 45 -20 50 -16 23 -32 108 -27 141 4 20 16 47 28 60 30 32 33 30 14 -6z
m3405 20 c0 -5 -2 -10 -4 -10 -3 0 -8 5 -11 10 -3 6 -1 10 4 10 6 0 11 -4 11
-10z m-541 -42 c-5 -17 -14 -35 -20 -39 -6 -4 -8 -12 -5 -18 4 -6 2 -11 -3
-11 -6 0 -11 -6 -11 -14 0 -8 -7 -17 -16 -20 -14 -5 -15 -4 -5 8 7 8 10 20 6
26 -3 5 -2 10 4 10 6 0 7 7 4 17 -4 10 -2 14 4 10 5 -3 17 9 26 28 21 44 28
45 16 3z m-2255 0 c-3 -4 -11 -5 -19 -1 -21 7 -19 12 4 10 11 0 18 -5 15 -9z
m16 -18 c0 -5 -5 -10 -11 -10 -5 0 -7 5 -4 10 3 6 8 10 11 10 2 0 4 -4 4 -10z
m31 -49 c6 -14 5 -20 -1 -16 -6 3 -10 0 -10 -7 0 -9 -4 -8 -15 3 -9 9 -13 23
-9 33 8 22 25 16 35 -13z m-484 -81 c25 -61 27 -70 14 -70 -5 0 -14 15 -21 33
-7 17 -19 46 -26 64 -8 17 -14 39 -14 50 1 17 1 17 13 -2 6 -11 22 -45 34 -75z
m-48 5 c11 -25 21 -51 21 -58 0 -12 -49 -43 -55 -35 -10 12 -34 69 -39 94 -6
26 -3 32 16 41 29 13 32 12 57 -42z m3321 50 c0 -8 -41 -119 -63 -167 -20 -46
-37 -62 -37 -35 0 28 74 207 87 207 7 0 13 -2 13 -5z m-3088 -45 c33 -16 32
-16 -7 -23 -16 -3 -40 -8 -52 -11 -30 -6 -34 3 -17 43 13 31 16 32 32 20 9 -8
29 -21 44 -29z m2982 34 c21 -8 20 -29 -1 -81 -18 -43 -40 -54 -72 -34 -11 7
-11 15 -1 47 24 74 34 83 74 68z m-551 -18 c6 -16 -2 -28 -14 -20 -12 7 -11
34 0 34 5 0 11 -6 14 -14z m-2064 -58 c-7 -14 -6 -16 6 -12 8 4 15 2 15 -3 0
-5 25 -37 56 -71 30 -34 53 -65 50 -70 -2 -4 0 -14 6 -22 8 -12 9 -11 4 3 -4
12 -2 17 6 14 7 -2 12 -10 11 -16 -2 -6 0 -10 5 -8 11 3 62 -39 62 -53 0 -6 5
-8 10 -5 6 3 10 1 10 -6 0 -7 3 -9 7 -6 6 7 43 -21 43 -32 0 -4 -9 -7 -21 -8
-14 -1 -19 3 -15 12 3 9 0 12 -10 8 -10 -3 -30 9 -54 35 -22 22 -47 43 -57 47
-10 3 -50 44 -90 89 -71 81 -72 84 -61 114 8 20 15 27 19 20 4 -7 3 -20 -2
-30z m-599 -78 c0 -5 -5 -10 -11 -10 -5 0 -7 5 -4 10 3 6 8 10 11 10 2 0 4 -4
4 -10z m2550 -4 c0 -3 -4 -8 -10 -11 -5 -3 -10 -1 -10 4 0 6 5 11 10 11 6 0
10 -2 10 -4z m647 -64 c7 -53 -22 -116 -111 -240 -41 -58 -105 -96 -144 -85
-34 8 -26 23 12 23 43 0 85 34 131 106 79 123 103 191 85 240 -10 27 -10 28 5
13 9 -9 19 -34 22 -57z m287 -24 c-14 -42 -53 -132 -88 -201 -44 -88 -60 -129
-52 -137 7 -7 0 -10 -22 -10 -18 0 -32 2 -32 4 0 3 26 52 58 110 32 57 81 152
108 210 26 58 50 104 51 102 2 -1 -9 -36 -23 -78z m-3628 -288 c32 -47 31 -60
-7 -60 -26 0 -29 2 -19 14 9 12 1 36 -44 123 -75 148 -93 191 -113 268 -2 11
32 -54 78 -145 45 -91 92 -181 105 -200z m311 265 c34 -49 62 -96 62 -102 2
-28 -27 -11 -49 30 -32 58 -59 96 -95 135 l-30 34 25 -4 c19 -2 41 -26 87 -93z
m-27 -52 c36 -59 37 -66 5 -83 -29 -15 -40 -6 -74 63 -19 37 -19 37 2 52 31
22 34 20 67 -32z m2944 32 c18 -13 18 -16 2 -47 -8 -18 -24 -44 -35 -57 -18
-24 -20 -24 -45 -8 -32 21 -32 25 -1 71 14 20 25 41 25 46 0 15 32 11 54 -5z
m-3030 -105 c44 -72 55 -100 38 -100 -13 0 -110 155 -118 187 l-6 28 20 -20
c11 -11 41 -54 66 -95z m2326 60 c0 -5 -5 -10 -11 -10 -5 0 -7 5 -4 10 3 6 8
10 11 10 2 0 4 -4 4 -10z m-10 -20 c12 -8 9 -10 -13 -10 -16 0 -26 4 -22 10 8
12 16 12 35 0z m-65 -51 c0 -8 -7 -14 -15 -14 -8 0 -19 -6 -23 -12 -11 -17
-27 -16 -27 1 0 15 27 29 40 21 5 -3 12 0 16 6 4 8 3 9 -4 5 -7 -4 -12 -2 -12
4 0 7 6 10 13 8 6 -3 12 -11 12 -19z m-2055 -9 c0 -11 5 -20 11 -20 6 0 3 -7
-6 -16 -9 -9 -17 -15 -19 -13 -8 10 -15 57 -9 63 12 12 23 6 23 -14z m1983
-24 c7 -17 -18 -40 -33 -31 -7 4 -7 12 0 26 13 23 26 25 33 5z m-2097 -48
c-19 -26 -21 -11 -4 29 9 22 12 24 15 11 3 -10 -3 -28 -11 -40z m818 7 c-4 -8
-11 -15 -16 -15 -6 0 -5 6 2 15 7 8 14 15 16 15 2 0 1 -7 -2 -15z m1230 6 c6
-9 -44 -35 -52 -26 -3 3 0 5 6 5 7 0 11 3 11 8 -4 22 23 33 35 13z m-1812 -67
c51 -53 61 -74 38 -74 -21 0 -123 117 -114 131 8 14 12 11 76 -57z m-952 30
c0 -19 108 -228 149 -287 l32 -47 -48 0 c-44 1 -47 2 -29 15 19 14 18 18 -31
117 -41 83 -93 209 -93 226 0 2 5 0 10 -3 6 -3 10 -13 10 -21z m837 -151 c72
-76 129 -109 170 -98 18 4 24 2 21 -7 -7 -22 -66 -21 -113 2 -28 14 -70 51
-116 103 -76 87 -93 118 -83 149 4 15 10 9 30 -29 13 -27 54 -81 91 -120z
m3481 71 c-17 -43 -49 -112 -70 -152 -43 -82 -43 -82 -23 -82 8 0 15 -4 15
-10 0 -5 -19 -10 -41 -10 l-41 0 18 28 c36 55 98 169 131 241 19 40 36 72 38
69 3 -3 -9 -40 -27 -84z m-3387 -51 c-21 -29 -33 -29 -62 5 -55 63 -54 60 -28
88 l24 26 41 -48 c41 -46 41 -49 25 -71z m2540 97 c27 -15 24 -29 -20 -80
l-40 -45 -25 25 -25 25 37 42 c40 46 44 48 73 33z m83 -67 c-71 -94 -144 -158
-144 -125 0 14 159 176 166 169 4 -3 -6 -23 -22 -44z m-2468 -66 c12 -7 39
-26 60 -44 21 -18 58 -46 80 -62 49 -35 80 -86 58 -95 -9 -3 -18 3 -23 17 -9
24 -123 114 -203 161 -27 15 -48 30 -48 32 0 9 56 2 76 -9z m2304 -39 c0 -51
-29 -95 -98 -150 -114 -90 -148 -109 -203 -110 -34 -1 -55 4 -66 15 -16 15
-13 16 33 11 50 -6 108 13 145 48 8 7 40 32 72 56 67 50 97 93 97 140 0 20 4
31 10 27 6 -3 10 -20 10 -37z m-170 15 c0 -15 -15 -30 -63 -66 -47 -36 -87
-48 -87 -27 0 6 4 10 8 10 5 0 35 20 66 45 56 43 76 53 76 38z m753 -50 c-100
-161 -423 -496 -451 -468 -4 4 15 26 43 48 101 84 200 185 297 301 55 65 102
125 105 132 3 8 9 14 14 14 5 0 2 -12 -8 -27z m-3378 -252 c55 -56 128 -126
163 -154 60 -49 74 -67 51 -67 -20 0 -180 143 -257 230 -96 108 -107 122 -154
189 -61 87 -44 80 29 -11 37 -45 112 -130 168 -187z m545 223 l50 -36 -15 -29
c-9 -16 -19 -29 -24 -29 -10 0 -101 71 -101 79 0 8 30 51 36 51 2 0 26 -16 54
-36z m2102 19 c18 -16 25 -53 10 -53 -5 0 -17 -8 -28 -19 -39 -36 -60 -42 -78
-22 -9 9 -16 22 -16 28 0 10 78 82 89 83 3 0 13 -7 23 -17z m-2196 -92 c18
-14 50 -39 73 -54 23 -16 41 -35 41 -43 0 -12 -3 -13 -21 -2 -12 7 -29 18 -38
23 -40 24 -139 110 -135 117 6 10 39 -7 80 -41z m1998 3 c22 -9 10 -24 -20
-24 -35 0 -225 -97 -251 -128 -22 -26 -23 -27 -23 -4 0 31 29 57 107 94 148
70 158 73 187 62z m-1617 -50 c77 -37 96 -61 41 -50 -38 7 -119 55 -126 74 -6
18 5 15 85 -24z m-194 -72 c23 -25 152 -94 220 -118 37 -13 72 -10 132 11 15
5 14 1 -8 -19 -23 -21 -38 -26 -80 -26 -42 0 -70 9 -151 50 -55 28 -111 60
-124 73 -39 35 -55 83 -42 127 1 3 8 -13 16 -35 8 -21 24 -50 37 -63z m3077
31 c-57 -103 -124 -193 -135 -182 -3 4 20 42 53 85 32 44 67 91 76 107 26 40
30 33 6 -10z m-4249 -34 c24 -34 59 -79 78 -101 32 -37 37 -64 7 -39 -15 13
-106 142 -125 179 -21 39 -4 24 40 -39z m1349 26 c28 -14 50 -27 50 -30 0 -2
-5 -16 -12 -30 -13 -28 -24 -27 -90 6 -40 21 -44 29 -28 60 14 25 21 24 80 -6z
m1578 0 c10 -21 8 -26 -16 -43 -15 -10 -40 -24 -57 -31 -27 -11 -31 -11 -47 9
-26 32 -23 37 30 64 60 32 76 32 90 1z m-1688 5 c0 -5 -5 -10 -11 -10 -5 0 -7
5 -4 10 3 6 8 10 11 10 2 0 4 -4 4 -10z m388 -61 c29 -10 60 -19 69 -19 34 0
103 -41 103 -61 0 -19 0 -19 -27 0 -38 28 -241 83 -275 75 -32 -6 -38 9 -10
26 21 12 69 5 140 -21z m1000 5 c-3 -16 -54 -35 -137 -51 -25 -4 -33 -3 -29 7
2 7 38 23 79 36 93 27 91 27 87 8z m382 -13 c0 -12 -209 -115 -217 -107 -8 7
26 46 41 46 6 0 40 16 76 35 65 34 100 43 100 26z m-1595 -21 c3 -5 1 -10 -4
-10 -6 0 -11 5 -11 10 0 6 2 10 4 10 3 0 8 -4 11 -10z m1375 -26 c0 -50 -54
-88 -180 -128 -62 -20 -131 -36 -153 -36 -41 0 -93 24 -102 48 -8 22 2 26 20
9 39 -39 174 -26 293 28 65 30 91 51 103 83 11 29 19 28 19 -4z m-1150 0 c54
-15 56 -17 52 -45 -5 -33 -17 -35 -88 -18 -53 14 -57 19 -44 53 11 31 8 30 80
10z m990 -3 c20 -38 12 -49 -40 -60 -83 -18 -92 -16 -88 21 3 29 8 33 48 44
63 17 68 16 80 -5z m-647 -6 c26 -4 47 -11 47 -17 0 -12 -148 -7 -168 6 -22
14 -1 26 36 21 20 -2 58 -7 85 -10z m411 5 c49 -18 25 -25 -99 -27 -77 -2
-140 -8 -167 -17 -48 -17 -60 -13 -35 11 26 27 253 51 301 33z m-416 -56 c16
-5 22 -14 22 -35 0 -29 0 -29 -64 -29 -68 0 -76 6 -68 47 4 20 10 23 46 23 22
0 51 -3 64 -6z m345 -21 c3 -16 3 -30 1 -33 -3 -2 -34 -6 -69 -8 l-65 -4 0 30
c0 34 9 39 81 41 43 1 47 -1 52 -26z m-596 0 c18 -51 79 -76 213 -87 93 -8
164 5 196 35 19 18 24 19 24 6 0 -20 -41 -53 -87 -68 -45 -15 -171 -6 -254 17
-60 17 -119 66 -119 99 0 21 19 19 27 -2z m758 7 c3 -5 1 -10 -4 -10 -6 0 -11
5 -11 10 0 6 2 10 4 10 3 0 8 -4 11 -10z m-875 -32 c90 -24 115 -37 103 -49
-9 -9 -194 38 -223 56 -17 10 10 27 30 19 8 -3 49 -15 90 -26z m240 12 c0 -5
-5 -10 -11 -10 -5 0 -7 5 -4 10 3 6 8 10 11 10 2 0 4 -4 4 -10z m190 -20 c0
-5 -5 -10 -11 -10 -5 0 -7 5 -4 10 3 6 8 10 11 10 2 0 4 -4 4 -10z m332 -62
c-10 -10 -123 -27 -184 -28 -26 0 -38 4 -38 14 0 10 16 16 53 20 125 14 187
12 169 -6z m-1771 -81 c-8 -8 -23 0 -51 28 -55 54 -50 62 11 19 35 -26 47 -40
40 -47z m3064 33 c-37 -38 -65 -51 -65 -31 0 11 80 71 94 71 6 0 -8 -18 -29
-40z m-3133 -31 c27 -22 36 -35 29 -42 -7 -7 -18 -3 -33 14 -62 64 -60 78 4
28z m3163 -9 c-41 -41 -55 -49 -55 -27 1 12 68 66 85 67 5 0 -9 -18 -30 -40z
m-3186 -38 c14 -12 21 -24 16 -31 -5 -9 -17 -3 -41 20 -55 54 -39 61 25 11z
m3221 -7 c-30 -31 -50 -37 -50 -16 0 10 73 62 79 56 2 -3 -10 -21 -29 -40z
m-3254 -31 c14 -10 21 -21 16 -26 -13 -13 -33 -1 -67 40 l-30 37 28 -18 c15
-9 38 -24 53 -33z m3294 1 c-32 -33 -60 -45 -60 -27 0 10 71 62 84 62 6 0 -5
-16 -24 -35z m-3350 -26 c31 -23 39 -34 31 -42 -8 -8 -22 0 -53 31 -48 49 -39
55 22 11z m3413 19 c-18 -30 -57 -68 -70 -68 -24 0 -13 20 29 50 45 33 53 36
41 18z m-3452 -55 c34 -25 52 -54 32 -53 -16 1 -93 80 -78 80 4 0 24 -12 46
-27z m3464 -13 c-34 -35 -55 -43 -55 -21 0 10 71 61 84 61 6 0 -7 -18 -29 -40z
m-3498 -26 c29 -22 45 -54 26 -54 -10 0 -73 62 -73 72 0 13 12 9 47 -18z
m3546 2 c-22 -29 -53 -50 -61 -41 -7 7 57 64 71 65 4 0 0 -11 -10 -24z m-3567
-56 c21 -16 41 -54 25 -48 -12 4 -101 87 -101 94 0 6 37 -17 76 -46z m3579
-10 c-40 -41 -55 -49 -55 -27 1 13 67 67 84 67 5 0 -8 -18 -29 -40z m-3633
-20 c33 -22 64 -40 68 -40 11 0 60 -59 60 -71 0 -8 32 -83 48 -113 9 -16 -25
9 -141 104 -63 52 -113 97 -111 99 2 2 35 -17 74 -42 38 -26 73 -47 77 -47 5
0 -28 34 -71 75 -44 41 -76 75 -72 75 5 0 35 -18 68 -40z m3692 -4 c-128 -111
-141 -134 -38 -68 84 54 93 59 74 39 -41 -42 -225 -187 -228 -179 -8 25 75
172 99 172 4 0 33 18 65 39 33 22 61 38 63 35 3 -2 -13 -19 -35 -38z m-2904
-296 c13 -8 13 -10 -2 -10 -9 0 -20 5 -23 10 -8 13 5 13 25 0z m45 -28 c-3 -3
-11 0 -18 7 -9 10 -8 11 6 5 10 -3 15 -9 12 -12z m-16 -38 c34 -15 61 -30 61
-35 0 -5 -27 3 -61 18 -50 22 -62 24 -69 12 -7 -10 -9 -8 -7 9 2 28 3 28 76
-4z m2441 -14 c0 -5 -5 -10 -11 -10 -5 0 -7 5 -4 10 3 6 8 10 11 10 2 0 4 -4
4 -10z m-578 -67 c-57 -15 -62 -15 -62 -5 0 14 94 40 102 28 4 -6 -12 -15 -40
-23z m448 -53 c0 -5 -4 -10 -9 -10 -6 0 -13 5 -16 10 -3 6 1 10 9 10 9 0 16
-4 16 -10z m-155 -40 c4 -6 -5 -10 -19 -10 -14 0 -26 5 -26 10 0 6 9 10 19 10
11 0 23 -4 26 -10z"/>
<path d="M5312 6618 c-34 -29 -62 -57 -62 -63 0 -5 10 -16 21 -24 18 -10 23
-10 30 0 6 10 11 10 25 -2 16 -13 17 -12 12 9 -7 25 4 29 22 7 18 -22 29 -18
23 8 -4 19 0 17 26 -13 18 -19 31 -28 31 -20 0 24 -47 144 -56 147 -5 2 -37
-20 -72 -49z"/>
<path d="M3700 6330 c-367 -34 -629 -108 -855 -241 -132 -78 -153 -95 -138
-110 6 -6 18 -9 25 -5 31 16 59 34 75 48 31 28 205 113 295 146 237 85 475
125 763 126 431 1 769 -86 1054 -271 76 -49 111 -60 111 -34 0 24 -230 157
-369 212 -248 100 -669 156 -961 129z"/>
<path d="M4936 2609 c-73 -50 -228 -134 -298 -160 -157 -59 -293 -92 -478
-115 -511 -64 -1040 39 -1390 270 -59 39 -83 45 -78 19 8 -41 259 -177 438
-236 228 -75 444 -107 726 -107 145 0 383 18 449 34 11 3 54 12 95 22 182 40
373 120 526 220 77 50 98 74 76 88 -5 3 -35 -13 -66 -35z"/>
<path d="M2445 2486 c-137 -121 -182 -174 -142 -164 31 7 317 264 317 284 0
29 -30 9 -175 -120z"/>
<path d="M5080 2601 c0 -11 12 -29 26 -40 15 -11 56 -47 93 -80 129 -115 186
-161 199 -161 29 0 7 32 -65 96 -43 38 -80 71 -83 74 -25 26 -153 130 -161
130 -5 0 -9 -9 -9 -19z"/>
<path d="M3257 3011 c-5 -22 0 -31 20 -31 8 0 12 9 10 22 -5 29 -23 34 -30 9z"/>
<path d="M3623 5763 c9 -2 23 -2 30 0 6 3 -1 5 -18 5 -16 0 -22 -2 -12 -5z"/>
<path d="M3780 5761 c0 -5 -9 -12 -19 -16 -16 -5 -19 -14 -18 -48 2 -39 4 -42
40 -50 54 -13 69 3 65 67 -3 50 -4 51 -35 54 -18 2 -33 -1 -33 -7z"/>
<path d="M3380 5720 c0 -5 5 -10 11 -10 5 0 7 5 4 10 -3 6 -8 10 -11 10 -2 0
-4 -4 -4 -10z"/>
<path d="M3412 5660 c0 -14 2 -19 5 -12 2 6 2 18 0 25 -3 6 -5 1 -5 -13z"/>
<path d="M3740 5601 c0 -11 5 -23 10 -26 6 -4 10 5 10 19 0 14 -4 26 -10 26
-5 0 -10 -9 -10 -19z"/>
<path d="M3411 5574 c0 -11 3 -14 6 -6 3 7 2 16 -1 19 -3 4 -6 -2 -5 -13z"/>
<path d="M3747 5543 c-8 -17 -6 -103 3 -103 6 0 10 25 10 55 0 52 -4 65 -13
48z"/>
<path d="M3738 5417 c-12 -29 -10 -63 3 -50 6 6 9 23 7 39 -2 24 -4 26 -10 11z"/>
<path d="M3325 5298 c-52 -43 -68 -58 -64 -62 2 -2 28 18 58 45 62 56 65 65 6
17z"/>
<path d="M3795 5310 c5 -9 -15 -15 -37 -11 -5 0 -8 -23 -8 -51 0 -34 3 -48 9
-39 11 17 18 -163 11 -277 -3 -46 -2 -91 2 -100 4 -11 7 -12 7 -3 1 11 4 11
15 1 8 -6 12 -18 9 -26 -6 -15 42 -38 59 -28 13 8 3 480 -11 517 -8 20 -17 27
-36 27 -15 0 -24 -4 -20 -10z"/>
<path d="M3210 5184 c-18 -26 -59 -75 -92 -109 -74 -80 -76 -93 -2 -17 64 65
139 160 132 167 -3 3 -20 -16 -38 -41z"/>
<path d="M3333 5105 c-3 -9 -3 -18 -1 -21 3 -3 8 4 11 16 6 23 -1 27 -10 5z"/>
<path d="M3407 5102 c1 -8 3 -16 3 -18 0 -3 5 -2 10 1 6 3 10 14 10 23 0 13
-2 14 -9 3 -5 -7 -11 -9 -13 -5 -3 5 -3 3 -1 -4z"/>
<path d="M3363 5066 c-13 -14 -29 -26 -37 -26 -14 0 -26 -21 -26 -47 0 -17 28
-48 37 -40 3 4 13 2 22 -3 10 -5 22 -5 29 -1 16 9 28 101 14 101 -6 0 -12 9
-14 21 -3 20 -4 20 -25 -5z m-13 -76 c0 -5 -4 -10 -10 -10 -5 0 -10 5 -10 10
0 6 5 10 10 10 6 0 10 -4 10 -10z"/>
<path d="M3284 5035 c-3 -8 -4 -20 -2 -27 3 -7 7 -1 10 15 6 29 1 36 -8 12z"/>
<path d="M3742 5020 c0 -14 2 -19 5 -12 2 6 2 18 0 25 -3 6 -5 1 -5 -13z"/>
<path d="M3430 5006 c0 -8 5 -18 10 -21 6 -3 10 1 10 9 0 8 -4 18 -10 21 -5 3
-10 -1 -10 -9z"/>
<path d="M3023 4968 c-35 -38 -54 -86 -51 -127 2 -21 7 -37 11 -34 5 3 6 14 4
25 -7 26 21 118 38 124 7 3 16 12 19 20 7 19 3 18 -21 -8z"/>
<path d="M3411 4894 c0 -11 3 -14 6 -6 3 7 2 16 -1 19 -3 4 -6 -2 -5 -13z"/>
<path d="M3465 4810 c3 -5 11 -10 16 -10 6 0 7 5 4 10 -3 6 -11 10 -16 10 -6
0 -7 -4 -4 -10z"/>
<path d="M3411 4734 c0 -11 3 -14 6 -6 3 7 2 16 -1 19 -3 4 -6 -2 -5 -13z"/>
<path d="M3760 4718 c0 -19 2 -20 10 -8 13 19 13 30 0 30 -5 0 -10 -10 -10
-22z"/>
<path d="M3762 4635 c-1 -24 3 -47 8 -50 6 -4 10 14 10 44 0 63 -15 68 -18 6z"/>
<path d="M3221 4624 c0 -11 3 -14 6 -6 3 7 2 16 -1 19 -3 4 -6 -2 -5 -13z"/>
<path d="M3762 4465 c0 -57 6 -100 15 -117 12 -25 12 -28 -2 -28 -8 0 -15 -4
-15 -10 0 -5 4 -10 9 -10 5 0 9 -10 10 -22 0 -13 2 -48 3 -80 2 -31 0 -54 -3
-52 -7 4 -21 -98 -14 -105 3 -2 5 5 5 17 0 12 5 22 10 22 9 0 8 -114 -2 -175
-2 -13 3 -20 14 -20 21 0 28 -7 33 -35 5 -28 13 -36 41 -44 17 -5 23 -2 27 16
3 13 2 134 -2 270 -6 224 -9 249 -26 268 -14 16 -27 20 -47 16 -32 -6 -33 -4
-47 109 l-9 70 0 -90z"/>
<path d="M4313 4159 c-9 -9 -6 -17 10 -31 l22 -19 -22 10 c-15 8 -24 8 -29 0
-10 -18 7 -263 20 -271 8 -6 7 -8 -2 -8 -7 0 -10 -4 -7 -10 7 -11 87 30 123
63 12 11 22 30 22 41 0 12 3 32 7 45 6 23 7 23 14 5 7 -17 8 -17 8 5 1 31 -32
84 -64 101 -14 7 -25 17 -25 22 0 4 -8 8 -19 8 -10 0 -24 7 -31 15 -15 18 0
20 20 3 8 -7 6 -3 -4 10 -22 25 -27 27 -43 11z"/>
<path d="M4771 4128 c-9 -26 -23 -124 -17 -117 6 6 34 139 29 139 -2 0 -7 -10
-12 -22z"/>
<path d="M3346 4028 c-22 -63 -36 -119 -26 -113 4 3 14 29 20 57 7 29 17 61
22 71 5 10 7 21 5 23 -3 3 -12 -14 -21 -38z"/>
<path d="M4481 4044 c0 -11 3 -14 6 -6 3 7 2 16 -1 19 -3 4 -6 -2 -5 -13z"/>
<path d="M4736 3985 c-9 -26 -7 -32 5 -12 6 10 9 21 6 23 -2 3 -7 -2 -11 -11z"/>
<path d="M3433 3900 c0 -36 2 -50 4 -32 2 17 2 47 0 65 -2 17 -4 3 -4 -33z"/>
<path d="M4681 3887 c-16 -41 -13 -57 5 -24 8 16 13 34 11 40 -3 7 -10 -1 -16
-16z"/>
<path d="M4597 3798 c-23 -24 -16 -36 7 -13 9 9 16 21 16 26 0 12 -2 11 -23
-13z"/>
<path d="M3361 3734 c0 -11 3 -14 6 -6 3 7 2 16 -1 19 -3 4 -6 -2 -5 -13z"/>
<path d="M3789 3688 c0 -24 -2 -55 -3 -70 -1 -16 2 -28 6 -28 4 0 8 32 8 70 0
75 -9 99 -11 28z"/>
<path d="M4442 3667 c-12 -13 -22 -27 -22 -31 0 -4 11 5 25 20 14 15 25 29 25
30 0 8 -7 3 -28 -19z"/>
<path d="M3791 3454 c0 -11 3 -14 6 -6 3 7 2 16 -1 19 -3 4 -6 -2 -5 -13z"/>
<path d="M3790 3389 c0 -21 4 -28 13 -23 6 4 9 3 4 -1 -12 -14 -46 -16 -67 -5
-10 5 -20 6 -22 1 -2 -4 -22 -10 -46 -14 -24 -3 -40 -1 -36 4 3 5 -8 8 -24 7
-16 -1 -28 -7 -26 -13 5 -13 53 -35 75 -35 10 0 23 -8 28 -17 6 -10 11 -12 11
-5 0 7 15 12 39 12 22 0 42 -5 44 -12 4 -10 8 -10 15 1 7 9 11 10 17 2 5 -9
10 -9 20 -1 10 8 19 8 33 1 15 -8 21 -7 25 3 6 14 99 29 107 17 8 -12 80 -21
80 -11 0 5 15 14 33 20 30 9 30 10 2 4 -36 -7 -51 -6 -135 3 -63 8 -65 9 -74
43 -14 52 -48 66 -80 34 -15 -14 -16 -14 -16 0 0 9 -4 16 -10 16 -5 0 -10 -14
-10 -31z"/>
<path d="M3556 3335 c-9 -26 -7 -32 5 -12 6 10 9 21 6 23 -2 3 -7 -2 -11 -11z"/>
</g>
</svg>
